HIERARCHY
ROOT Hips
{
    OFFSET 0.000000 0.000000 0.000000
    CHANNELS 6 Xposition Yposition Zposition Zrotation Xrotation Yrotation
    JOINT Spine
    {
        OFFSET -0.000000 7.305679 0.000000
        CHANNELS 3 Zrotation Xrotation Yrotation
        JOINT Spine1
        {
            OFFSET -0.000000 20.356625 0.000000
            CHANNELS 3 Zrotation Xrotation Yrotation
            JOINT Neck
            {
                OFFSET -0.000000 22.138498 0.000000
                CHANNELS 3 Zrotation Xrotation Yrotation
                JOINT Head
                {
                    OFFSET -0.000000 13.809516 1.781873
                    CHANNELS 3 Zrotation Xrotation Yrotation
                    End Site
                    {
                        OFFSET -0.000000 17.818729 0.000000
                    }
                }
            }
            JOINT LeftShoulder
            {
                OFFSET 3.599131 17.989975 0.023592
                CHANNELS 3 Zrotation Xrotation Yrotation
                JOINT LeftArm
                {
                    OFFSET 12.560995 0.000000 0.000000
                    CHANNELS 3 Zrotation Xrotation Yrotation
                    JOINT LeftForeArm
                    {
                        OFFSET 22.903347 0.000000 0.000000
                        CHANNELS 3 Zrotation Xrotation Yrotation
                        JOINT LeftHand
                        {
                            OFFSET 21.865294 0.000000 0.000000
                            CHANNELS 3 Zrotation Xrotation Yrotation
                            JOINT LeftHandThumb1
                            {
                                OFFSET 1.853706 -2.106484 2.949078
                                CHANNELS 3 Zrotation Xrotation Yrotation
                                JOINT LeftHandThumb2
                                {
                                    OFFSET 2.049154 0.000000 1.336405
                                    CHANNELS 3 Zrotation Xrotation Yrotation
                                    JOINT LeftHandThumb3
                                    {
                                        OFFSET 2.672809 0.000000 0.000000
                                        CHANNELS 3 Zrotation Xrotation Yrotation
                                        End Site
                                        {
                                            OFFSET 2.381303 0.000000 0.000000
                                        }
                                    }
                                }
                            }
                            JOINT LeftHandIndex1
                            {
                                OFFSET 7.583345 0.000000 2.949078
                                CHANNELS 3 Zrotation Xrotation Yrotation
                                JOINT LeftHandIndex2
                                {
                                    OFFSET 4.454682 0.000000 0.000000
                                    CHANNELS 3 Zrotation Xrotation Yrotation
                                    JOINT LeftHandIndex3
                                    {
                                        OFFSET 2.227341 0.000000 0.000000
                                        CHANNELS 3 Zrotation Xrotation Yrotation
                                        End Site
                                        {
                                            OFFSET 1.984419 0.000000 0.000000
                                        }
                                    }
                                }
                            }
                            JOINT LeftHandMiddle1
                            {
                                OFFSET 7.583345 0.000000 0.977409
                                CHANNELS 3 Zrotation Xrotation Yrotation
                                JOINT LeftHandMiddle2
                                {
                                    OFFSET 4.900151 0.000000 0.000000
                                    CHANNELS 3 Zrotation Xrotation Yrotation
                                    JOINT LeftHandMiddle3
                                    {
                                        OFFSET 2.672809 0.000000 0.000000
                                        CHANNELS 3 Zrotation Xrotation Yrotation
                                        End Site
                                        {
                                            OFFSET 2.381303 0.000000 0.000000
                                        }
                                    }
                                }
                            }
                            JOINT LeftHandRing1
                            {
                                OFFSET 7.162047 0.000000 -0.977409
                                CHANNELS 3 Zrotation Xrotation Yrotation
                                JOINT LeftHandRing2
                                {
                                    OFFSET 4.454682 0.000000 0.000000
                                    CHANNELS 3 Zrotation Xrotation Yrotation
                                    JOINT LeftHandRing3
                                    {
                                        OFFSET 2.227341 0.000000 0.000000
                                        CHANNELS 3 Zrotation Xrotation Yrotation
                                        End Site
                                        {
                                            OFFSET 1.984419 0.000000 0.000000
                                        }
                                    }
                                }
                            }
                            JOINT LeftHandPinky1
                            {
                                OFFSET 6.740750 0.000000 -2.949078
                                CHANNELS 3 Zrotation Xrotation Yrotation
                                JOINT LeftHandPinky2
                                {
                                    OFFSET 3.563746 0.000000 0.000000
                                    CHANNELS 3 Zrotation Xrotation Yrotation
                                    JOINT LeftHandPinky3
                                    {
                                        OFFSET 1.781873 0.000000 0.000000
                                        CHANNELS 3 Zrotation Xrotation Yrotation
                                        End Site
                                        {
                                            OFFSET 1.587536 0.000000 0.000000
                                        }
                                    }
                                }
                            }
                        }
                    }
                }
            }
            JOINT RightShoulder
            {
                OFFSET -3.506995 17.989975 0.023592
                CHANNELS 3 Zrotation Xrotation Yrotation
                JOINT RightArm
                {
                    OFFSET -12.560995 0.000000 0.000000
                    CHANNELS 3 Zrotation Xrotation Yrotation
                    JOINT RightForeArm
                    {
                        OFFSET -22.903347 0.000000 0.000000
                        CHANNELS 3 Zrotation Xrotation Yrotation
                        JOINT RightHand
                        {
                            OFFSET -21.865294 0.000000 0.000000
                            CHANNELS 3 Zrotation Xrotation Yrotation
                            JOINT RightHandThumb1
                            {
                                OFFSET -1.853706 -2.106484 2.949078
                                CHANNELS 3 Zrotation Xrotation Yrotation
                                JOINT RightHandThumb2
                                {
                                    OFFSET -2.049154 0.000000 1.336405
                                    CHANNELS 3 Zrotation Xrotation Yrotation
                                    JOINT RightHandThumb3
                                    {
                                        OFFSET -2.672809 0.000000 0.000000
                                        CHANNELS 3 Zrotation Xrotation Yrotation
                                        End Site
                                        {
                                            OFFSET -2.381303 0.000000 0.000000
                                        }
                                    }
                                }
                            }
                            JOINT RightHandIndex1
                            {
                                OFFSET -7.583345 0.000000 2.949078
                                CHANNELS 3 Zrotation Xrotation Yrotation
                                JOINT RightHandIndex2
                                {
                                    OFFSET -4.454682 0.000000 0.000000
                                    CHANNELS 3 Zrotation Xrotation Yrotation
                                    JOINT RightHandIndex3
                                    {
                                        OFFSET -2.227341 0.000000 0.000000
                                        CHANNELS 3 Zrotation Xrotation Yrotation
                                        End Site
                                        {
                                            OFFSET -1.984419 0.000000 0.000000
                                        }
                                    }
                                }
                            }
                            JOINT RightHandMiddle1
                            {
                                OFFSET -7.583345 0.000000 0.977409
                                CHANNELS 3 Zrotation Xrotation Yrotation
                                JOINT RightHandMiddle2
                                {
                                    OFFSET -4.900151 0.000000 0.000000
                                    CHANNELS 3 Zrotation Xrotation Yrotation
                                    JOINT RightHandMiddle3
                                    {
                                        OFFSET -2.672809 0.000000 0.000000
                                        CHANNELS 3 Zrotation Xrotation Yrotation
                                        End Site
                                        {
                                            OFFSET -2.381303 0.000000 0.000000
                                        }
                                    }
                                }
                            }
                            JOINT RightHandRing1
                            {
                                OFFSET -7.162047 0.000000 -0.977409
                                CHANNELS 3 Zrotation Xrotation Yrotation
                                JOINT RightHandRing2
                                {
                                    OFFSET -4.454682 0.000000 0.000000
                                    CHANNELS 3 Zrotation Xrotation Yrotation
                                    JOINT RightHandRing3
                                    {
                                        OFFSET -2.227341 0.000000 0.000000
                                        CHANNELS 3 Zrotation Xrotation Yrotation
                                        End Site
                                        {
                                            OFFSET -1.984419 0.000000 0.000000
                                        }
                                    }
                                }
                            }
                            JOINT RightHandPinky1
                            {
                                OFFSET -6.740750 0.000000 -2.949078
                                CHANNELS 3 Zrotation Xrotation Yrotation
                                JOINT RightHandPinky2
                                {
                                    OFFSET -3.563746 0.000000 0.000000
                                    CHANNELS 3 Zrotation Xrotation Yrotation
                                    JOINT RightHandPinky3
                                    {
                                        OFFSET -1.781873 0.000000 0.000000
                                        CHANNELS 3 Zrotation Xrotation Yrotation
                                        End Site
                                        {
                                            OFFSET -1.587536 0.000000 0.000000
                                        }
                                    }
                                }
                            }
                        }
                    }
                }
            }
        }
    }
    JOINT LeftUpLeg
    {
        OFFSET 8.909365 0.000000 0.000000
        CHANNELS 3 Zrotation Xrotation Yrotation
        JOINT LeftLeg
        {
            OFFSET -0.000000 -38.765560 0.000000
            CHANNELS 3 Zrotation Xrotation Yrotation
            JOINT LeftFoot
            {
                OFFSET -0.000000 -35.244961 0.000000
                CHANNELS 3 Zrotation Xrotation Yrotation
                JOINT LeftToeBase
                {
                    OFFSET -0.000000 -5.791087 13.364048
                    CHANNELS 3 Zrotation Xrotation Yrotation
                    End Site
                    {
                        OFFSET -0.000000 0.000000 3.563746
                    }
                }
            }
        }
    }
    JOINT RightUpLeg
    {
        OFFSET -8.909365 0.000000 0.000000
        CHANNELS 3 Zrotation Xrotation Yrotation
        JOINT RightLeg
        {
            OFFSET -0.000000 -38.765560 0.000000
            CHANNELS 3 Zrotation Xrotation Yrotation
            JOINT RightFoot
            {
                OFFSET -0.000000 -35.244961 0.000000
                CHANNELS 3 Zrotation Xrotation Yrotation
                JOINT RightToeBase
                {
                    OFFSET -0.000000 -5.791087 13.364048
                    CHANNELS 3 Zrotation Xrotation Yrotation
                    End Site
                    {
                        OFFSET -0.000000 0.000000 3.563746
                    }
                }
            }
        }
    }
}
MOTION
Frames:    5
Frame Time:    0.008333
-6.372552    80.899574    120.852364    0.488131    0.054297    1.351336    -0.363823    -3.412921    -0.978499    -1.275648    6.281509    -0.252660    2.466711    -3.501985    0.437196    0.757455    -0.589355    0.609882    1.685605    3.063104    -10.422459    -86.683800    26.543188    -2.919464    9.564144    -6.627046    0.465492    7.881859    -28.092604    19.336031    -2.429114    1.715633    -0.973879    0.000000    0.000000    0.000000    0.000000    0.000000    0.000000    -23.888826    6.395456    -14.117020    -49.363060    0.000000    0.000000    -24.681530    0.000000    0.000000    -32.170975    1.800186    -5.385678    -64.463593    0.000000    0.000000    -32.231789    0.000000    0.000000    -39.677135    -3.948482    2.611231    -79.564102    0.000000    0.000000    -39.782051    0.000000    0.000000    -46.598392    -10.859399    10.102415    -95.122223    0.000000    0.000000    -47.561111    0.000000    0.000000    -3.438340    -1.354499    -0.941136    97.585091    50.420998    -10.381419    -11.432264    -32.838997    2.393719    13.515421    -41.626858    -2.571367    0.470784    0.358302    -0.264926    0.000000    0.000000    -0.619703    0.000000    0.000000    -1.239406    10.915383    0.000000    -0.000000    21.830770    0.000000    -0.000000    10.915383    0.000000    -0.000000    16.474115    -0.825721    -2.028492    32.988541    0.000000    -0.000000    16.494272    0.000000    -0.000000    22.002275    -1.843542    -3.968206    44.146313    0.000000    -0.000000    22.073162    0.000000    -0.000000    27.663424    -3.081976    -5.856104    55.642200    0.000000    -0.000000    27.821102    0.000000    -0.000000    -1.529804    1.740192    -4.048913    -0.127935    -0.729796    -3.597601    0.757563    -0.728527    5.550027    0.049272    0.189058    -0.099119    0.156556    2.912799    -1.195235    0.953874    -0.535319    -2.963325    -1.345827    -2.409691    3.723210    -0.130890    0.336037    0.238895    
-6.368653    80.900452    120.845833    0.489596    0.042710    1.338909    -0.350798    -3.406112    -0.979915    -1.286558    6.291523    -0.252547    2.471861    -3.503804    0.430373    0.754686    -0.607661    0.603893    1.690469    3.062795    -10.423147    -86.698563    26.528477    -2.917262    9.560764    -6.659783    0.469337    7.893443    -28.095188    19.356056    -2.417546    1.681828    -1.001198    0.000000    0.000000    0.000000    0.000000    0.000000    0.000000    -23.911196    6.387560    -14.086094    -49.402332    0.000000    0.000000    -24.701168    0.000000    0.000000    -32.185673    1.791905    -5.365651    -64.492081    0.000000    0.000000    -32.246029    0.000000    0.000000    -39.685345    -3.954671    2.621252    -79.581825    0.000000    0.000000    -39.790909    0.000000    0.000000    -46.601433    -10.861395    10.103156    -95.128799    0.000000    0.000000    -47.564400    0.000000    0.000000    -3.445437    -1.365516    -0.938997    97.591713    50.421135    -10.382030    -11.422831    -32.849651    2.391089    13.529848    -41.643028    -2.561796    0.449975    0.359911    -0.280867    0.000000    0.000000    -0.636536    0.000000    0.000000    -1.273072    10.905135    0.000000    -0.000000    21.810272    0.000000    -0.000000    10.905135    0.000000    -0.000000    16.461636    -0.824432    -2.026826    32.963493    0.000000    -0.000000    16.481747    0.000000    -0.000000    21.987642    -1.840735    -3.965044    44.116714    0.000000    -0.000000    22.058357    0.000000    -0.000000    27.646641    -3.077392    -5.851601    55.607922    0.000000    -0.000000    27.803961    0.000000    -0.000000    -1.534005    1.742936    -4.046916    -0.130834    -0.720190    -3.601873    0.764777    -0.729498    5.565285    0.050354    0.186949    -0.102049    0.152292    2.914445    -1.184087    0.952036    -0.527731    -2.966086    -1.339105    -2.409349    3.726931    -0.132187    0.335854    0.240911    
-6.364764    80.901321    120.839462    0.491069    0.030809    1.326844    -0.338085    -3.399204    -0.981489    -1.296873    6.301891    -0.252656    2.476397    -3.505671    0.423409    0.752046    -0.625369    0.597442    1.694950    3.062379    -10.423444    -86.713219    26.514372    -2.915400    9.557291    -6.691168    0.473446    7.905774    -28.098114    19.375351    -2.414149    1.663891    -1.019203    0.000000    0.000000    0.000000    0.000000    0.000000    0.000000    -23.932190    6.376494    -14.049412    -49.437424    0.000000    0.000000    -24.718716    0.000000    0.000000    -32.198223    1.781209    -5.341661    -64.516045    0.000000    0.000000    -32.258022    0.000000    0.000000    -39.690979    -3.962204    2.633662    -79.594658    0.000000    0.000000    -39.797333    0.000000    0.000000    -46.601795    -10.863402    10.104840    -95.130211    0.000000    0.000000    -47.565105    0.000000    0.000000    -3.452008    -1.376144    -0.937011    97.596436    50.419865    -10.381180    -11.413804    -32.859093    2.388678    13.542663    -41.657795    -2.552716    0.431569    0.361499    -0.295227    0.000000    0.000000    -0.651628    0.000000    0.000000    -1.303256    10.896304    0.000000    -0.000000    21.792608    0.000000    -0.000000    10.896304    0.000000    -0.000000    16.450579    -0.823316    -2.025439    32.941288    0.000000    -0.000000    16.470644    0.000000    -0.000000    21.974409    -1.838300    -3.962420    44.089970    0.000000    -0.000000    22.044991    0.000000    -0.000000    27.631229    -3.073408    -5.847886    55.576492    0.000000    -0.000000    27.788246    0.000000    -0.000000    -1.538180    1.746013    -4.044347    -0.133699    -0.710672    -3.603615    0.770812    -0.730883    5.577101    0.051354    0.185598    -0.104686    0.148163    2.916405    -1.174616    0.950089    -0.519775    -2.968019    -1.332108    -2.409434    3.730904    -0.133327    0.335351    0.242649    
-6.360837    80.902161    120.833435    0.492840    0.018409    1.315365    -0.326268    -3.392818    -0.983694    -1.305798    6.313334    -0.252850    2.479599    -3.507328    0.416729    0.749389    -0.642087    0.591347    1.698226    3.061582    -10.423113    -86.727585    26.501226    -2.913670    9.553277    -6.719093    0.478089    7.919433    -28.101517    19.393393    -2.422759    1.668497    -1.024524    0.000000    0.000000    0.000000    0.000000    0.000000    0.000000    -23.951660    6.360330    -14.003016    -49.467133    0.000000    0.000000    -24.733566    0.000000    0.000000    -32.207710    1.766178    -5.310529    -64.533432    0.000000    0.000000    -32.266716    0.000000    0.000000    -39.692413    -3.972787    2.650970    -79.599747    0.000000    0.000000    -39.799873    0.000000    0.000000    -46.597256    -10.866738    10.109412    -95.122604    0.000000    0.000000    -47.561302    0.000000    0.000000    -3.448406    -1.368494    -0.934344    97.569084    50.420498    -10.352804    -11.405661    -32.869736    2.388353    13.551943    -41.669907    -2.545635    0.416800    0.363039    -0.307170    0.000000    0.000000    -0.664135    0.000000    0.000000    -1.328270    10.889365    0.000000    -0.000000    21.778730    0.000000    -0.000000    10.889365    0.000000    -0.000000    16.441498    -0.822497    -2.024566    32.923077    0.000000    -0.000000    16.461542    0.000000    -0.000000    21.963232    -1.836509    -3.960795    44.067410    0.000000    -0.000000    22.033712    0.000000    -0.000000    27.617928    -3.070476    -5.845628    55.549473    0.000000    -0.000000    27.774736    0.000000    -0.000000    -1.542575    1.749924    -4.041132    -0.136510    -0.701678    -3.602686    0.775983    -0.732245    5.584943    0.052079    0.184777    -0.106580    0.143833    2.918903    -1.168010    0.948117    -0.511204    -2.968166    -1.325088    -2.410160    3.735103    -0.134040    0.334177    0.243651    
-6.356846    80.902939    120.827797    0.495014    0.005668    1.304773    -0.315160    -3.387084    -0.986366    -1.313871    6.325709    -0.253148    2.481696    -3.508780    0.410011    0.746704    -0.656966    0.585051    1.700909    3.060210    -10.422538    -86.742058    26.489611    -2.912364    9.548871    -6.741898    0.483941    7.934338    -28.104317    19.410685    -2.441961    1.690704    -1.021513    0.000000    0.000000    0.000000    0.000000    0.000000    0.000000    -23.971588    6.340500    -13.948669    -49.496006    0.000000    0.000000    -24.748003    0.000000    0.000000    -32.215607    1.747557    -5.273176    -64.547340    0.000000    0.000000    -32.273663    0.000000    0.000000    -39.690456    -3.986392    2.673035    -79.598663    0.000000    0.000000    -39.799320    0.000000    0.000000    -46.587734    -10.872112    10.117549    -95.106064    0.000000    0.000000    -47.553032    0.000000    0.000000    -3.448488    -1.368392    -0.932444    97.552757    50.416367    -10.333994    -11.398587    -32.877907    2.387011    13.558957    -41.677696    -2.538415    0.405688    0.364288    -0.316292    0.000000    0.000000    -0.673606    0.000000    0.000000    -1.347212    10.883922    0.000000    -0.000000    21.767847    0.000000    -0.000000    10.883922    0.000000    -0.000000    16.434181    -0.821894    -2.024019    32.908413    0.000000    -0.000000    16.454199    0.000000    -0.000000    21.954069    -1.835191    -3.959795    44.048965    0.000000    -0.000000    22.024477    0.000000    -0.000000    27.606894    -3.068318    -5.844273    55.527111    0.000000    -0.000000    27.763556    0.000000    -0.000000    -1.547163    1.754615    -4.037550    -0.139590    -0.693405    -3.599465    0.780384    -0.733498    5.589063    0.052557    0.184653    -0.107774    0.139174    2.921917    -1.164765    0.946097    -0.502120    -2.965828    -1.317518    -2.411735    3.739079    -0.134469    0.332635    0.244174    
